<?xml version="1.0" encoding="iso-8859-1"?>
<!-- Generator: Adobe Illustrator 16.0.0, SVG Export Plug-In . SVG Version: 6.00 Build 0)  -->
<!DOCTYPE svg PUBLIC "-//W3C//DTD SVG 1.1//EN" "http://www.w3.org/Graphics/SVG/1.1/DTD/svg11.dtd">
<svg version="1.1" id="Capa_1" xmlns="http://www.w3.org/2000/svg" xmlns:xlink="http://www.w3.org/1999/xlink" x="0px" y="0px"
	 width="896.462px" height="896.462px" viewBox="0 0 896.462 896.462" style="enable-background:new 0 0 896.462 896.462;"
	 xml:space="preserve">
<g>
	<g>
		<path d="M84.013,336.146H28.004C12.511,336.146,0,348.658,0,364.15v504.075c0,15.479,12.511,28.004,28.004,28.004l56.008-0.576
			c15.493,0,28.004-12.522,28.004-28.002V363.591C112.017,348.125,99.506,336.146,84.013,336.146z"/>
		<path d="M893.014,355.302c-3.883-7.069-10.912-12.922-20.893-17.394c-2.519-1.12-5.17-1.872-7.877-2.241
			c-23.791-3.05-136.109-27.472-332.496-27.472c25.436-79.089,28.334-92.216,28.334-168.079c0-84.013-51.687-139.104-84.066-139.884
			c-15.344,0-27.812,12.347-27.977,27.662c-1.258,110.458-54.779,249.917-198.942,309.29c-15.178,4.787-25.377,18.05-25.377,33.091
			l0.231,441.94c0,23.629,25.791,28.004,25.791,28.004c7.985,2.354,14.726,4.951,141.757,35.58
			c2.159,0.492,85.475,20.43,169.489,20.43h167.121c31.504,0,46.381-10.502,55.625-27.951
			c1.147-2.24,112.018-227.229,112.729-499.424C896.461,364.122,895.312,359.446,893.014,355.302z"/>
	</g>
</g>
<g>
</g>
<g>
</g>
<g>
</g>
<g>
</g>
<g>
</g>
<g>
</g>
<g>
</g>
<g>
</g>
<g>
</g>
<g>
</g>
<g>
</g>
<g>
</g>
<g>
</g>
<g>
</g>
<g>
</g>
</svg>
